<?xml version="1.0" encoding="iso-8859-1"?>
<!-- Generator: Adobe Illustrator 19.0.0, SVG Export Plug-In . SVG Version: 6.00 Build 0)  -->
<svg version="1.1" id="Layer_1" xmlns="http://www.w3.org/2000/svg" xmlns:xlink="http://www.w3.org/1999/xlink" x="0px" y="0px"
	 viewBox="0 0 392.138 392.138" style="enable-background:new 0 0 392.138 392.138;" xml:space="preserve">
<g>
	<path style="fill:#2488FF;" d="M319.072,68.439L387.181,0h-181.48l90.96,90.96l-5.816,5.844
		c30.223,27.667,47.86,67.098,47.86,108.46c0,80.987-65.887,146.874-146.874,146.874S44.957,286.25,44.957,205.264
		c0-56.711,31.703-107.356,82.738-132.173l-17.492-35.973c-31.071,15.109-57.342,38.515-75.971,67.687
		C15.08,134.793,4.957,169.532,4.957,205.264c0,103.042,83.831,186.874,186.874,186.874s186.874-83.832,186.874-186.874
		c0-30.084-7.324-59.991-21.181-86.489C347.708,100.003,334.607,82.913,319.072,68.439z"/>
	<polygon style="fill:#005ECE;" points="205.701,0 205.701,182.36 290.845,96.804 296.661,90.96 	"/>
</g>
<g>
</g>
<g>
</g>
<g>
</g>
<g>
</g>
<g>
</g>
<g>
</g>
<g>
</g>
<g>
</g>
<g>
</g>
<g>
</g>
<g>
</g>
<g>
</g>
<g>
</g>
<g>
</g>
<g>
</g>
</svg>
